<svg width="2022" height="443" viewBox="0 0 2022 443" fill="none" xmlns="http://www.w3.org/2000/svg">
<path d="M718.694 110.443V227.182C718.694 293.431 674.792 338.251 594.659 338.251C514.527 338.251 470.624 293.431 470.624 227.182V110.443H521.114V223.43C521.114 267.624 547.005 294.099 594.659 294.099C642.314 294.099 668.205 267.624 668.205 223.43V110.443H718.694ZM799.744 110.443L883.129 281.382L966.139 110.443H1020.71L909.312 331.413H855.904L744.502 110.443H799.744ZM1028.84 220.886C1028.84 147.049 1083.04 103.481 1169.26 103.481C1255.48 103.481 1309.68 147.049 1309.68 220.886C1309.68 294.724 1255.48 338.292 1169.26 338.292C1083.04 338.292 1028.84 294.766 1028.84 220.886ZM1258.15 220.886C1258.15 173.566 1223.76 147.049 1169.14 147.049C1114.52 147.049 1080.13 173.566 1080.13 220.886C1080.13 268.207 1114.23 294.766 1169.14 294.766C1224.05 294.766 1258.28 268.249 1258.28 220.886H1258.15ZM1615.75 220.886C1615.75 289.679 1562.38 331.371 1479.08 331.371H1361.8V110.402H1479.21C1562.51 110.443 1615.87 152.094 1615.87 220.886H1615.75ZM1564.3 220.886C1564.3 175.442 1528.32 153.345 1475.29 153.345H1412.29V288.428H1475.41C1528.44 288.428 1564.43 266.331 1564.43 220.886H1564.3ZM1833.17 284.634H1699.76L1676.08 331.371H1622.17L1739.24 110.402H1794.48L1911.56 331.371H1856.98L1833.17 284.634ZM1812.04 243.609L1766.18 153.678L1720.31 243.609H1812.04ZM263.038 273.711C284.885 247.611 304.73 222.387 322.741 199.54C347.757 168.062 370.729 153.678 412.422 153.678H435.644V110.735H400.206C340.711 110.735 309.15 136.209 280.132 172.065C262.454 193.912 240.107 221.846 221.762 244.193C200.541 270.667 178.986 288.595 133.749 288.72H110.443V331.663H146.09C195.204 331.371 228.141 315.403 263.038 273.711Z" fill="#3F2A56"/>
</svg>
